<svg width="15" height="11" viewBox="0 0 15 11" fill="none" xmlns="http://www.w3.org/2000/svg">
<path fill-rule="evenodd" clip-rule="evenodd" d="M3.68979 0.75C3.89667 0.74979 4.08232 0.87701 4.15679 1.07003L7.36662 9.39C7.46602 9.6477 7.33774 9.9371 7.0801 10.0365C6.82247 10.1359 6.53304 10.0076 6.43365 9.75L5.3825 7.02537H2.01133L0.966992 9.749C0.868128 10.0068 0.578964 10.1357 0.321126 10.0369C0.0632879 9.938 -0.0655864 9.6488 0.0332774 9.391L3.22344 1.07099C3.29751 0.87782 3.4829 0.75021 3.68979 0.75ZM3.69174 2.64284L5.05458 6.17537H2.33724L3.69174 2.64284ZM10.8989 3.20703C9.25818 3.20703 8.00915 4.68569 8.00915 6.60972C8.00915 8.6337 9.35818 10.0124 10.8989 10.0124C11.7214 10.0124 12.5744 9.6692 13.1543 9.0219V9.53C13.1543 9.7785 13.3557 9.98 13.6043 9.98C13.8528 9.98 14.0543 9.7785 14.0543 9.53V3.72C14.0543 3.47147 13.8528 3.27 13.6043 3.27C13.3557 3.27 13.1543 3.47147 13.1543 3.72V4.22317C12.6054 3.60095 11.7924 3.20703 10.8989 3.20703ZM13.1543 7.79823V5.30195C12.7639 4.58101 11.9414 4.05757 11.0868 4.05757C10.1088 4.05757 9.03503 4.96581 9.03503 6.60955C9.03503 8.1533 10.0088 9.1615 11.0868 9.1615C11.9701 9.1615 12.7719 8.4952 13.1543 7.79823Z" fill="white"/>
</svg>
