<svg width="13" height="13" viewBox="0 0 13 13" fill="none" xmlns="http://www.w3.org/2000/svg">
<path fill-rule="evenodd" clip-rule="evenodd" d="M10 0.5C10 0.22386 9.7761 0 9.5 0C9.2239 0 9 0.22386 9 0.5V3H4V0.5C4 0.22386 3.77614 0 3.5 0C3.22386 0 3 0.22386 3 0.5V3H0.5C0.22386 3 0 3.22386 0 3.5C0 3.77614 0.22386 4 0.5 4H3V9H0.5C0.22386 9 0 9.2239 0 9.5C0 9.7761 0.22386 10 0.5 10H3V12.5C3 12.7761 3.22386 13 3.5 13C3.77614 13 4 12.7761 4 12.5V10H9V12.5C9 12.7761 9.2239 13 9.5 13C9.7761 13 10 12.7761 10 12.5V10H12.5C12.7761 10 13 9.7761 13 9.5C13 9.2239 12.7761 9 12.5 9H10V4H12.5C12.7761 4 13 3.77614 13 3.5C13 3.22386 12.7761 3 12.5 3H10V0.5ZM9 9V4H4V9H9Z" fill="white"/>
</svg>
