<svg width="24" height="28" viewBox="0 0 24 28" fill="none" xmlns="http://www.w3.org/2000/svg">
<path fill-rule="evenodd" clip-rule="evenodd" d="M0.599609 8.93335C0.599609 15.2236 5.64522 17.8 10.7329 17.8V26.6667C10.7329 27.3661 11.3001 27.9333 11.9996 27.9333C12.6992 27.9333 13.2663 27.3661 13.2663 26.6667V17.8V2.85335H15.7996V26.6667C15.7996 27.3661 16.3667 27.9333 17.0663 27.9333C17.7658 27.9333 18.3329 27.3661 18.3329 26.6667V2.85335H22.1329C22.9026 2.85335 23.5263 2.22954 23.5263 1.46001C23.5263 0.690489 22.9026 0.0666809 22.1329 0.0666809H17.0663H13.2663H11.9996H10.7329C5.64522 0.0666809 0.599609 2.64308 0.599609 8.93335Z" fill="white"/>
</svg>
